<svg xmlns="http://www.w3.org/2000/svg" xmlns:xlink="http://www.w3.org/1999/xlink" viewBox="0 0 590 142" preserveAspectRatio="xMidYMid" style="display: block; shape-rendering: auto; background: transparent;" width="590" height="142"><style type="text/css">
  .ld-text text {
    text-anchor: middle;
    dominant-baseline: middle;
    font-size: 51px;
    opacity: 0;
    user-select: none;
    pointer-events: none;
  }
</style>
<g class="ld-text" style="transform-origin:295px 71px;transform:scale(1)">
<g transform="translate(295,71)">
  <g transform="scale(0.6375) translate(0,0)"><g class="path" style="opacity: 1; transform-origin: -214.04px -0.42px; transform: matrix3d(0.7, 0, 0, 0, 0, 0.7, 0, 0, 0, 0, 0.7, 0, 0, 0, 0, 1); animation: 1.63934s linear -1.00984s infinite normal forwards running animate-9f9488csr4u; transform-box: view-box;"><path d="M17.84 58.99L17.84 58.99Q14.88 58.99 12.20 57.71Q9.52 56.43 7.60 53.79L7.60 53.79Q5.60 51.23 4.48 47.31Q3.36 43.39 3.36 38.11L3.36 38.11Q3.36 27.79 6.32 20.11Q9.28 12.43 13.84 7.31L13.84 7.31Q18.32 2.19 23.48-0.29Q28.64-2.77 33.12-2.77L33.12-2.77Q37.44-2.77 40.16-0.89Q42.88 0.99 44.16 4.11Q45.44 7.23 45.44 11.07L45.44 11.07L34.48 13.15Q33.76 9.95 32.56 8.59Q31.36 7.23 29.84 7.23L29.84 7.23Q28.08 7.23 26.20 9.15Q24.32 11.07 22.52 14.31Q20.72 17.55 19.28 21.55Q17.84 25.55 16.92 29.79Q16 34.03 15.84 37.79L15.84 37.79Q15.84 42.75 17.32 44.87Q18.80 46.99 21.12 46.99L21.12 46.99Q23.36 46.99 25.56 45.55Q27.76 44.11 29.24 41.67Q30.72 39.23 30.80 36.19L30.80 36.19L22.24 37.47L23.76 29.55L31.12 28.59Q34.16 28.19 37.56 27.63Q40.96 27.07 43.52 26.59L43.52 26.59Q42.96 34.75 40.36 40.87Q37.76 46.99 33.92 50.99Q30.08 54.99 25.88 56.99Q21.68 58.99 17.84 58.99" style="fill: rgb(204, 178, 81);" transform="translate(-238.440,-28.533)"></path></g><g class="path" style="opacity: 1; transform-origin: -174.88px -1.22px; transform: matrix3d(0.7, 0, 0, 0, 0, 0.7, 0, 0, 0, 0, 0.7, 0, 0, 0, 0, 1); animation: 1.63934s linear -0.937705s infinite normal forwards running animate-9f9488csr4u; transform-box: view-box;"><path d="M54.40 57.39L54.40 57.39Q49.12 57.39 45.76 53.31Q42.40 49.23 42.40 40.99L42.40 40.99Q42.40 36.43 43.52 31.39Q44.64 26.35 46.64 21.47Q48.64 16.59 51.28 12.43L51.28 12.43Q55.52 5.71 61.04 1.47Q66.56-2.77 72.64-2.77L72.64-2.77Q77.44-2.77 80.04-0.33Q82.64 2.11 83.68 5.91Q84.72 9.71 84.72 13.79L84.72 13.79Q84.72 23.31 81.80 31.51Q78.88 39.71 74.24 45.39L74.24 45.39Q69.60 51.23 64.36 54.31Q59.12 57.39 54.40 57.39 zM58.72 44.19L58.72 44.19Q62.32 44.19 65.08 41.79Q67.84 39.39 69.76 35.67Q71.68 31.95 72.64 27.87Q73.60 23.79 73.60 20.51L73.60 20.51Q73.60 19.23 73.36 17.75Q73.12 16.27 72.32 15.15Q71.52 14.03 69.84 14.03L69.84 14.03Q66.16 14.03 63.20 16.71Q60.24 19.39 58.24 23.47L58.24 23.47Q56.24 27.63 55.28 31.63Q54.32 35.63 54.32 38.91L54.32 38.91Q54.32 40.59 55.52 42.39Q56.72 44.19 58.72 44.19" style="fill: rgb(204, 178, 81);" transform="translate(-238.440,-28.533)"></path></g><g class="path" style="opacity: 1; transform-origin: -141.36px -1.18px; transform: matrix3d(0.7, 0, 0, 0, 0, 0.7, 0, 0, 0, 0, 0.7, 0, 0, 0, 0, 1); animation: 1.63934s linear -0.865574s infinite normal forwards running animate-9f9488csr4u; transform-box: view-box;"><path d="M100.08 56.91L100.08 56.91Q100.24 55.55 100.40 54.27Q100.56 52.99 100.72 51.71L100.72 51.71L101.20 47.23Q101.28 46.11 101.36 45.15Q101.44 44.19 101.52 43.39L101.52 43.39L94.56 43.39L91.36 54.91Q89.60 55.15 87.20 55.43Q84.80 55.71 82.72 55.95L82.72 55.95Q81.44 56.11 80.20 56.27Q78.96 56.43 77.68 56.59L77.68 56.59L84 35.63Q85.12 31.87 86.56 27.07Q88 22.27 89.48 17.23Q90.96 12.19 92.28 7.75Q93.60 3.31 94.40 0.27L94.40 0.27Q99.84-0.13 105.48-0.69Q111.12-1.25 116.48-2.21L116.48-2.21Q116.08 2.27 115.72 7.91Q115.36 13.55 115.08 19.55Q114.80 25.55 114.48 31.39L114.48 31.39Q114.32 36.91 114.08 42.79Q113.84 48.67 113.60 54.83L113.60 54.83Q112.40 54.99 111.20 55.15Q110 55.31 108.80 55.47L108.80 55.47Q106.80 55.79 104.40 56.19Q102 56.59 100.08 56.91 zM101.44 15.31L96.48 35.39Q96.96 35.39 98.28 35.31Q99.60 35.23 100.80 35.15Q102 35.07 102.24 35.07L102.24 35.07Q102.24 34.03 102.56 30.83Q102.88 27.63 103.20 24.11L103.20 24.11Q103.36 22.03 103.56 19.83Q103.76 17.63 104 15.31L104 15.31L104.48 8.35L103.28 8.43L101.44 15.31" style="fill: rgb(204, 178, 81);" transform="translate(-238.440,-28.533)"></path></g><g class="path" style="opacity: 1; transform-origin: -111.36px -0.82px; transform: matrix3d(0.7, 0, 0, 0, 0, 0.7, 0, 0, 0, 0, 0.7, 0, 0, 0, 0, 1); animation: 1.63934s linear -0.793443s infinite normal forwards running animate-9f9488csr4u; transform-box: view-box;"><path d="M114.96 57.23L114.96 57.23Q115.84 50.91 116.84 44.51Q117.84 38.11 118.92 32.15Q120 26.19 120.96 21.39L120.96 21.39Q122 16.19 123.04 10.83Q124.08 5.47 125.20 0.03L125.20 0.03L139.20-1.81L135.04 16.27Q133.92 20.99 132.76 26.39Q131.60 31.79 130.64 36.83Q129.68 41.87 129.12 45.79L129.12 45.79Q131.12 45.63 133.40 45.59Q135.68 45.55 137.44 45.55L137.44 45.55Q137.52 47.39 137.76 49.43Q138 51.47 138.28 52.95Q138.56 54.43 138.56 54.59L138.56 54.59Q138.24 54.59 137.96 54.59Q137.68 54.59 137.36 54.51L137.36 54.51L136.08 54.51Q132.96 54.51 129.16 54.79Q125.36 55.07 121.64 55.67Q117.92 56.27 114.96 57.23" style="fill: rgb(204, 178, 81);" transform="translate(-238.440,-28.533)"></path></g><g class="path" style="opacity: 1; transform-origin: -62.68px -0.62px; transform: matrix3d(0.7, 0, 0, 0, 0, 0.7, 0, 0, 0, 0, 0.7, 0, 0, 0, 0, 1); animation: 1.63934s linear -0.721311s infinite normal forwards running animate-9f9488csr4u; transform-box: view-box;"><path d="M168.32 57.23L168.32 57.23Q163.28 57.23 160.08 52.51Q156.88 47.79 156.88 39.55L156.88 39.55Q156.88 32.03 158.96 24.71Q161.04 17.39 164.80 11.55L164.80 11.55Q168.56 5.71 173.72 2.15Q178.88-1.41 185.12-1.41L185.12-1.41Q189.04-1.41 191.84 1.63Q194.64 4.67 194.64 9.79L194.64 9.79L194.64 10.75Q194.64 11.07 194.64 11.31Q194.64 11.55 194.56 11.87L194.56 11.87L184.08 14.67Q183.12 12.67 181.84 12.67L181.84 12.67Q179.92 12.67 177.80 15.79Q175.68 18.91 173.76 23.23L173.76 23.23Q172.48 26.11 171.48 29.15Q170.48 32.19 169.92 34.83Q169.36 37.47 169.36 39.15L169.36 39.15Q169.36 41.63 170.08 42.75L170.08 42.75Q170.64 43.79 171.84 43.79L171.84 43.79Q173.04 43.79 174.48 42.63Q175.92 41.47 177.16 39.71Q178.40 37.95 178.80 36.19L178.80 36.19L187.92 39.87Q184 48.83 178.60 53.03Q173.20 57.23 168.32 57.23" style="fill: rgb(204, 178, 81);" transform="translate(-238.440,-28.533)"></path></g><g class="path" style="opacity: 1; transform-origin: -27.92px -1.22px; transform: matrix3d(0.7, 0, 0, 0, 0, 0.7, 0, 0, 0, 0, 0.7, 0, 0, 0, 0, 1); animation: 1.63934s linear -0.64918s infinite normal forwards running animate-9f9488csr4u; transform-box: view-box;"><path d="M201.36 57.39L201.36 57.39Q196.08 57.39 192.72 53.31Q189.36 49.23 189.36 40.99L189.36 40.99Q189.36 36.43 190.48 31.39Q191.60 26.35 193.60 21.47Q195.60 16.59 198.24 12.43L198.24 12.43Q202.48 5.71 208 1.47Q213.52-2.77 219.60-2.77L219.60-2.77Q224.40-2.77 227-0.33Q229.60 2.11 230.64 5.91Q231.68 9.71 231.68 13.79L231.68 13.79Q231.68 23.31 228.76 31.51Q225.84 39.71 221.20 45.39L221.20 45.39Q216.56 51.23 211.32 54.31Q206.08 57.39 201.36 57.39 zM205.68 44.19L205.68 44.19Q209.28 44.19 212.04 41.79Q214.80 39.39 216.72 35.67Q218.64 31.95 219.60 27.87Q220.56 23.79 220.56 20.51L220.56 20.51Q220.56 19.23 220.32 17.75Q220.08 16.27 219.28 15.15Q218.48 14.03 216.80 14.03L216.80 14.03Q213.12 14.03 210.16 16.71Q207.20 19.39 205.20 23.47L205.20 23.47Q203.20 27.63 202.24 31.63Q201.28 35.63 201.28 38.91L201.28 38.91Q201.28 40.59 202.48 42.39Q203.68 44.19 205.68 44.19" style="fill: rgb(204, 178, 81);" transform="translate(-238.440,-28.533)"></path></g><g class="path" style="opacity: 1; transform-origin: 14.2px -1.9px; transform: matrix3d(0.7, 0, 0, 0, 0, 0.7, 0, 0, 0, 0, 0.7, 0, 0, 0, 0, 1); animation: 1.63934s linear -0.577049s infinite normal forwards running animate-9f9488csr4u; transform-box: view-box;"><path d="M237.12 55.71L223.92 56.59Q227.44 45.87 230.64 35.71L230.64 35.71Q232 31.55 233.44 26.83Q234.88 22.11 236.32 17.35Q237.76 12.59 239.04 8.19Q240.32 3.79 241.20 0.35L241.20 0.35Q245.60 0.35 249.52-0.13L249.52-0.13Q251.52-0.37 253.64-0.61Q255.76-0.85 258-1.01L258-1.01L257.52 2.91Q257.36 4.03 257.20 5.19Q257.04 6.35 256.88 7.55L256.88 7.55Q256.72 8.75 256.48 9.99Q256.24 11.23 256.08 12.51L256.08 12.51Q255.76 14.99 255.12 19.43Q254.48 23.87 253.60 29.07L253.60 29.07L254.64 29.07Q256.96 22.99 258.48 18.95Q260 14.91 260.96 12.35L260.96 12.35Q262.32 8.59 263.92 4.75Q265.52 0.91 266.56-1.17L266.56-1.17Q268.48-1.33 271.16-1.69Q273.84-2.05 276.60-2.53Q279.36-3.01 281.36-3.33L281.36-3.33Q280.24 3.39 279.32 10.23Q278.40 17.07 277.72 23.27Q277.04 29.47 276.56 34.43L276.56 34.43Q276.08 39.39 275.68 44.23Q275.28 49.07 274.88 53.79L274.88 53.79L260.96 56.27Q260.96 56.11 261.20 52.67Q261.44 49.23 262 44.11L262 44.11Q262.56 38.99 263.12 34.39Q263.68 29.79 264.24 26.83L264.24 26.83L263.52 26.83Q261.52 32.91 258.68 40.11Q255.84 47.31 253.12 56.03L253.12 56.03Q250.32 56.11 248.32 56.23Q246.32 56.35 243.68 56.51L243.68 56.51L246.24 26.83L245.04 26.83Q244.96 27.71 244.32 30.23Q243.68 32.75 242.80 35.99Q241.92 39.23 240.96 42.43L240.96 42.43Q237.36 54.99 237.12 55.71L237.12 55.71" style="fill: rgb(204, 178, 81);" transform="translate(-238.440,-28.533)"></path></g><g class="path" style="opacity: 1; transform-origin: 56px -0.94px; transform: matrix3d(0.7, 0, 0, 0, 0, 0.7, 0, 0, 0, 0, 0.7, 0, 0, 0, 0, 1); animation: 1.63934s linear -0.504918s infinite normal forwards running animate-9f9488csr4u; transform-box: view-box;"><path d="M289.44 54.43L275.60 57.15Q278 46.35 280.16 36.03L280.16 36.03Q281.04 31.87 281.96 27.11Q282.88 22.35 283.84 17.47Q284.80 12.59 285.60 8.23Q286.40 3.87 286.88 0.59L286.88 0.59Q290.08-0.37 293.80-1.17Q297.52-1.97 300.48-1.97L300.48-1.97Q305.28-1.97 308.08 0.07Q310.88 2.11 312.08 5.55Q313.28 8.99 313.28 13.07L313.28 13.07Q313.28 17.55 311.64 21.67Q310 25.79 307.24 29.07Q304.48 32.35 300.92 34.27Q297.36 36.19 293.52 36.19L293.52 36.19L292.64 36.19Q292 38.91 291.44 42.11Q290.88 45.31 290.48 48.03L290.48 48.03Q290.16 49.63 289.92 51.23Q289.68 52.83 289.44 54.43L289.44 54.43 zM294.24 27.79L294.24 27.79Q296.08 27.31 297.92 25.35Q299.76 23.39 300.96 20.35Q302.16 17.31 302.16 13.71L302.16 13.71Q302.16 10.75 300.84 9.23Q299.52 7.71 297.92 7.71L297.92 7.71Q297.04 12.99 296.16 17.71Q295.28 22.43 294.24 27.79" style="fill: rgb(204, 178, 81);" transform="translate(-238.440,-28.533)"></path></g><g class="path" style="opacity: 1; transform-origin: 80.8px -0.82px; transform: matrix3d(0.7, 0, 0, 0, 0, 0.7, 0, 0, 0, 0, 0.7, 0, 0, 0, 0, 1); animation: 1.63934s linear -0.432787s infinite normal forwards running animate-9f9488csr4u; transform-box: view-box;"><path d="M307.12 57.23L307.12 57.23Q308 50.91 309 44.51Q310 38.11 311.08 32.15Q312.16 26.19 313.12 21.39L313.12 21.39Q314.16 16.19 315.20 10.83Q316.24 5.47 317.36 0.03L317.36 0.03L331.36-1.81L327.20 16.27Q326.08 20.99 324.92 26.39Q323.76 31.79 322.80 36.83Q321.84 41.87 321.28 45.79L321.28 45.79Q323.28 45.63 325.56 45.59Q327.84 45.55 329.60 45.55L329.60 45.55Q329.68 47.39 329.92 49.43Q330.16 51.47 330.44 52.95Q330.72 54.43 330.72 54.59L330.72 54.59Q330.40 54.59 330.12 54.59Q329.84 54.59 329.52 54.51L329.52 54.51L328.24 54.51Q325.12 54.51 321.32 54.79Q317.52 55.07 313.80 55.67Q310.08 56.27 307.12 57.23" style="fill: rgb(204, 178, 81);" transform="translate(-238.440,-28.533)"></path></g><g class="path" style="opacity: 1; transform-origin: 110.4px -0.9px; transform: matrix3d(0.7, 0, 0, 0, 0, 0.7, 0, 0, 0, 0, 0.7, 0, 0, 0, 0, 1); animation: 1.63934s linear -0.360656s infinite normal forwards running animate-9f9488csr4u; transform-box: view-box;"><path d="M356.80 53.15L330.96 57.15L341.44 0.27L366.72-1.89Q366.16-0.13 365.76 1.71L365.76 1.71Q365.36 3.23 365 4.87Q364.64 6.51 364.40 7.79L364.40 7.79Q363.36 7.87 361.44 7.91Q359.52 7.95 357.52 7.99Q355.52 8.03 354.08 8.03Q352.64 8.03 352.56 8.03L352.56 8.03L349.76 22.35L354.40 22.11Q355.28 22.03 356.20 22.03Q357.12 22.03 358 22.03L358 22.03Q358.88 22.03 359.60 22.03Q360.32 22.03 360.72 21.95L360.72 21.95Q360.56 23.07 360.44 24.15Q360.32 25.23 360.16 26.35L360.16 26.35L359.44 30.75Q359.04 30.83 358.40 30.83Q357.76 30.83 356.88 30.83L356.88 30.83Q356 30.91 355.04 30.91Q354.08 30.91 353.20 30.99L353.20 30.99Q352.16 31.07 351.04 31.07Q349.92 31.07 348.64 31.15L348.64 31.15L345.92 45.87L357.60 44.03L356.80 53.15" style="fill: rgb(204, 178, 81);" transform="translate(-238.440,-28.533)"></path></g><g class="path" style="opacity: 1; transform-origin: 141.84px -0.58px; transform: matrix3d(0.7, 0, 0, 0, 0, 0.7, 0, 0, 0, 0, 0.7, 0, 0, 0, 0, 1); animation: 1.63934s linear -0.288525s infinite normal forwards running animate-9f9488csr4u; transform-box: view-box;"><path d="M379.20 54.91L364.80 57.15Q365.68 52.75 366.60 48.39Q367.52 44.03 368.32 39.79L368.32 39.79Q371.36 24.59 373.28 10.67L373.28 10.67Q372.40 10.51 371.44 10.47Q370.48 10.43 369.60 10.51L369.60 10.51Q367.68 10.67 365.84 10.03L365.84 10.03Q365.92 9.39 365.92 8.63Q365.92 7.87 365.92 7.07L365.92 7.07Q365.92 6.19 365.92 5.35Q365.92 4.51 366 3.71L366 3.71Q366.08 2.83 366.08 1.83Q366.08 0.83 366.16-0.21L366.16-0.21Q368.24-0.05 370.32 0.03Q372.40 0.11 374.48 0.11L374.48 0.11Q380.40 0.11 385.80-0.29Q391.20-0.69 395.76-1.25L395.76-1.25L394.88 3.07L394.16 6.83Q393.76 8.91 393.44 10.11L393.44 10.11Q392.56 10.35 391.68 10.51Q390.80 10.67 389.92 10.75L389.92 10.75Q389.04 10.83 388.12 10.99Q387.20 11.15 386.32 11.31L386.32 11.31Q385.12 17.23 384.36 21.55Q383.60 25.87 383 29.83Q382.40 33.79 381.60 38.51L381.60 38.51Q380.24 46.59 379.20 54.91L379.20 54.91" style="fill: rgb(204, 178, 81);" transform="translate(-238.440,-28.533)"></path></g><g class="path" style="opacity: 1; transform-origin: 166.64px -0.9px; transform: matrix3d(0.7, 0, 0, 0, 0, 0.7, 0, 0, 0, 0, 0.7, 0, 0, 0, 0, 1); animation: 1.63934s linear -0.216393s infinite normal forwards running animate-9f9488csr4u; transform-box: view-box;"><path d="M413.04 53.15L387.20 57.15L397.68 0.27L422.96-1.89Q422.40-0.13 422 1.71L422 1.71Q421.60 3.23 421.24 4.87Q420.88 6.51 420.64 7.79L420.64 7.79Q419.60 7.87 417.68 7.91Q415.76 7.95 413.76 7.99Q411.76 8.03 410.32 8.03Q408.88 8.03 408.80 8.03L408.80 8.03L406 22.35L410.64 22.11Q411.52 22.03 412.44 22.03Q413.36 22.03 414.24 22.03L414.24 22.03Q415.12 22.03 415.84 22.03Q416.56 22.03 416.96 21.95L416.96 21.95Q416.80 23.07 416.68 24.15Q416.56 25.23 416.40 26.35L416.40 26.35L415.68 30.75Q415.28 30.83 414.64 30.83Q414 30.83 413.12 30.83L413.12 30.83Q412.24 30.91 411.28 30.91Q410.32 30.91 409.44 30.99L409.44 30.99Q408.40 31.07 407.28 31.07Q406.16 31.07 404.88 31.15L404.88 31.15L402.16 45.87L413.84 44.03L413.04 53.15" style="fill: rgb(204, 178, 81);" transform="translate(-238.440,-28.533)"></path></g><g class="path" style="opacity: 1; transform-origin: 195.92px -0.46px; transform: matrix3d(0.7, 0, 0, 0, 0, 0.7, 0, 0, 0, 0, 0.7, 0, 0, 0, 0, 1); animation: 1.63934s linear -0.144262s infinite normal forwards running animate-9f9488csr4u; transform-box: view-box;"><path d="M418.64 57.47L418.64 57.47Q417.52 57.47 416.40 57.35Q415.28 57.23 414.16 57.07L414.16 57.07L418.40 35.55Q419.20 31.15 420.12 26.23Q421.04 21.31 421.92 16.47Q422.80 11.63 423.48 7.47Q424.16 3.31 424.56 0.43L424.56 0.43Q428-0.21 431.52-0.77Q435.04-1.33 438.72-1.33L438.72-1.33Q444.64-1.33 448.08 1.11Q451.52 3.55 453.04 7.51Q454.56 11.47 454.56 16.19L454.56 16.19Q454.56 20.43 453.36 25.11Q452.16 29.79 449.96 34.39Q447.76 38.99 444.72 43.07L444.72 43.07Q440 49.39 433.24 53.43Q426.48 57.47 418.64 57.47 zM428.16 47.39L428.16 47.39Q430.96 45.55 433.48 41.79Q436 38.03 438.24 32.75L438.24 32.75Q440.24 27.87 441.36 23.51Q442.48 19.15 442.48 16.27L442.48 16.27Q442.48 13.31 440.84 11.63Q439.20 9.95 435.68 9.95L435.68 9.95Q434.40 16.83 433.08 22.67Q431.76 28.51 430.52 34.43Q429.28 40.35 428.16 47.39" style="fill: rgb(204, 178, 81);" transform="translate(-238.440,-28.533)"></path></g><g class="path" style="opacity: 1; transform-origin: 229.68px -10.58px; transform: matrix3d(0.7, 0, 0, 0, 0, 0.7, 0, 0, 0, 0, 0.7, 0, 0, 0, 0, 1); animation: 1.63934s linear -0.0721311s infinite normal forwards running animate-9f9488csr4u; transform-box: view-box;"><path d="M456 38.59L456 38.59Q457.28 33.63 458.48 28.75Q459.68 23.87 460.88 18.99L460.88 18.99Q462 14.11 463.24 9.19Q464.48 4.27 465.76-0.61L465.76-0.61Q470.32-1.33 474.08-1.81Q477.84-2.29 480.24-2.69L480.24-2.69Q475.92 7.39 472.36 17.59Q468.80 27.79 465.28 38.11L465.28 38.11Q462.96 38.11 460.64 38.27Q458.32 38.43 456 38.59" style="fill: rgb(204, 178, 81);" transform="translate(-238.440,-28.533)"></path></g><g class="path" style="opacity: 1; transform-origin: 219px 22.66px; transform: matrix3d(0.7, 0, 0, 0, 0, 0.7, 0, 0, 0, 0, 0.7, 0, 0, 0, 0, 1); animation: 1.63934s linear 0s infinite normal forwards running animate-9f9488csr4u; transform-box: view-box;"><path d="M455.84 58.91L455.84 58.91Q453.44 58.91 451.88 57.75Q450.32 56.59 449.56 54.87Q448.80 53.15 448.80 51.39L448.80 51.39Q448.80 48.19 450.92 45.83Q453.04 43.47 456.80 43.47L456.80 43.47Q461.44 43.47 463.76 45.67Q466.08 47.87 466.08 50.67L466.08 50.67Q466.08 53.87 463.44 56.39Q460.80 58.91 455.84 58.91" style="fill: rgb(204, 178, 81);" transform="translate(-238.440,-28.533)"></path></g></g><text font-size="51" font-family="Bangers" fill="#ccb251" dy="0.35em">Goal completed!</text>
</g>
</g><style type="text/css">@keyframes animate-9f9488csr4u { 0.00% {transform: translate(0.00px,0.00px) rotate(0.00deg) scale(0.70, 0.70) skew(0deg, 0.00deg) ;opacity: 1.00;}2.00% {transform: translate(0.00px,-1.97px) rotate(0.00deg) scale(0.76, 0.76) ;}6.00% {transform: translate(0.00px,-3.60px) rotate(0.00deg) scale(0.81, 0.81) ;}10.00% {animation-timing-function: cubic-bezier(0.66,0.69,0.33,0.35);transform: translate(0.00px,-4.78px) rotate(0.00deg) scale(0.84, 0.84) ;}16.00% {animation-timing-function: cubic-bezier(0.66,0.68,0.33,0.35);transform: translate(0.00px,-6.19px) rotate(0.00deg) scale(0.89, 0.89) ;}22.00% {animation-timing-function: cubic-bezier(0.66,0.68,0.33,0.35);transform: translate(0.00px,-7.34px) rotate(0.00deg) scale(0.92, 0.92) ;}28.00% {animation-timing-function: cubic-bezier(0.66,0.69,0.33,0.35);transform: translate(0.00px,-8.28px) rotate(0.00deg) scale(0.95, 0.95) ;}34.00% {animation-timing-function: cubic-bezier(0.66,0.69,0.32,0.36);transform: translate(0.00px,-9.03px) rotate(0.00deg) scale(0.97, 0.97) ;}40.00% {animation-timing-function: cubic-bezier(0.65,0.72,0.32,0.39);transform: translate(0.00px,-9.59px) rotate(0.00deg) scale(0.99, 0.99) ;}46.00% {animation-timing-function: cubic-bezier(0.61,0.90,0.24,0.60);transform: translate(0.00px,-9.93px) rotate(0.00deg) scale(1.00, 1.00) ;}50.00% {transform: translate(0.00px,-10.00px) rotate(0.00deg) scale(1.00, 1.00) ;}54.00% {transform: translate(0.00px,-9.93px) rotate(0.00deg) scale(1.00, 1.00) ;}58.00% {animation-timing-function: cubic-bezier(0.68,0.63,0.35,0.29);transform: translate(0.00px,-9.73px) rotate(0.00deg) scale(0.99, 0.99) ;}64.00% {animation-timing-function: cubic-bezier(0.67,0.64,0.34,0.31);transform: translate(0.00px,-9.24px) rotate(0.00deg) scale(0.98, 0.98) ;}70.00% {animation-timing-function: cubic-bezier(0.67,0.65,0.34,0.32);transform: translate(0.00px,-8.55px) rotate(0.00deg) scale(0.96, 0.96) ;}76.00% {animation-timing-function: cubic-bezier(0.67,0.65,0.34,0.32);transform: translate(0.00px,-7.67px) rotate(0.00deg) scale(0.93, 0.93) ;}82.00% {animation-timing-function: cubic-bezier(0.67,0.65,0.34,0.32);transform: translate(0.00px,-6.60px) rotate(0.00deg) scale(0.90, 0.90) ;}88.00% {animation-timing-function: cubic-bezier(0.67,0.64,0.34,0.31);transform: translate(0.00px,-5.29px) rotate(0.00deg) scale(0.86, 0.86) ;}94.00% {animation-timing-function: cubic-bezier(0.69,0.61,0.35,0.28);transform: translate(0.00px,-3.60px) rotate(0.00deg) scale(0.81, 0.81) ;}100.00% {animation-timing-function: cubic-bezier(0.69,0.61,0.35,0.28);transform: translate(0.00px,0.00px) rotate(0.00deg) scale(0.70, 0.70) ;} }</style><!-- [ldio] generated by https://loading.io --></svg>
