<svg xmlns="http://www.w3.org/2000/svg" width="26" height="26" viewBox="0 0 26 26" fill="none">
<path d="M12.9238 7.99805H8.05386C9.31323 6.76914 11.0246 5.99727 12.9238 5.99727C16.448 5.99727 19.3324 8.60742 19.825 11.9996H23.8773C23.3695 6.39336 18.6671 2.00078 12.9289 2.00078C9.76011 2.00078 6.93159 3.36172 4.93081 5.50469V0L1.92456 3.00117V10.9992H9.92261L12.9238 7.99805ZM15.925 15.0008L12.9238 18.002H17.7937C16.5343 19.2309 14.823 20.0027 12.9238 20.0027C9.39956 20.0027 6.51519 17.3926 6.02261 14.0004H1.97534C2.48315 19.6066 7.1855 23.9992 12.9238 23.9992C16.0925 23.9992 18.921 22.6383 20.9218 20.4953V26L23.923 22.9988V15.0008H15.925Z" fill="#162e3d"/>
</svg>